# xmcd
#
# Track frame offsets:
# 150
# 26637
# 45105
# 68150
# 86175
# 113050
# 135912
# 157042
# 174352
# 198755
# 226287
#
# Disc length: 3673 seconds
#
# Revision: 0
# Processed by: cddbd v1.4PL0 Copyright (c) Steve Scherf et al.
# Submitted via: MacMP3 Pro 5.0 (http://mp3.act2.co.jp/)
#
DISCID=800e570b
DTITLE=ZOO - ZOO PALAST
DYEAR=1900
DGENRE=
TTITLE0=Dance Scene
TTITLE1=Carnival
TTITLE2=Angelic Dream
TTITLE3=Kyoumade Soshite Ashitakara
TTITLE4=Emerarudo
TTITLE5=MELLOW KISS
TTITLE6=Adam
TTITLE7=RED ZONE
TTITLE8=HERE WE GOO
TTITLE9=Angelic Dream - Acoustic Mix -
TTITLE10=Nemuranai Yoru
EXTD=
EXTT0=
EXTT1=
EXTT2=
EXTT3=
EXTT4=
EXTT5=
EXTT6=
EXTT7=
EXTT8=
EXTT9=
EXTT10=
PLAYORDER=
